<svg width="50" height="50" viewBox="0 0 50 50" fill="none" xmlns="http://www.w3.org/2000/svg">
<g clip-path="url(#clip0_235_2)">
<path d="M25 0C20.0555 0 15.222 1.46614 11.1107 4.21301C6.99953 6.95989 3.79522 10.8641 1.90302 15.432C0.0108322 19.9998 -0.484251 25.0262 0.480379 29.8755C1.44501 34.7247 3.82603 39.179 7.32234 42.6752C10.8186 46.1713 15.2732 48.5522 20.1227 49.5167C24.9723 50.4813 29.9989 49.9863 34.5671 48.0941C39.1352 46.2022 43.0397 42.998 45.7868 38.887C48.5338 34.7759 50 29.9427 50 24.9986C50 18.3685 47.366 12.01 42.6777 7.3219C37.9893 2.63377 31.6304 0 25 0ZM25 46.2364C20.7994 46.2363 16.6933 44.9907 13.2006 42.6571C9.70801 40.3235 6.98587 37.0066 5.37843 33.1259C3.77098 29.2454 3.35042 24.9753 4.16994 20.8557C4.98945 16.7361 7.01223 12.952 9.98248 9.98188C12.9527 7.01181 16.7371 4.98915 20.8569 4.16968C24.9768 3.35022 29.247 3.77074 33.1279 5.3781C37.0087 6.98545 40.3259 9.70744 42.6595 13.1998C44.9933 16.6923 46.2391 20.7981 46.2391 24.9986C46.2389 30.6312 44.0012 36.0329 40.0182 40.0157C36.035 43.9985 30.6329 46.2364 25 46.2364Z" fill="white"/>
<path d="M37.3438 12.972H12.6557C12.4204 12.9577 12.1848 12.9936 11.9644 13.0772C11.744 13.1608 11.5438 13.2902 11.3771 13.4568C11.2104 13.6235 11.081 13.8237 10.9974 14.0441C10.9138 14.2645 10.878 14.5001 10.8922 14.7354V32.3684C10.878 32.6037 10.9138 32.8392 10.9974 33.0597C11.081 33.2801 11.2104 33.4803 11.3771 33.6469C11.5438 33.8136 11.744 33.9431 11.9644 34.0266C12.1848 34.1102 12.4204 34.146 12.6557 34.1318H37.3438C37.5791 34.146 37.8148 34.1102 38.0352 34.0266C38.2556 33.9431 38.4558 33.8136 38.6224 33.6469C38.7891 33.4803 38.9185 33.2801 39.0022 33.0597C39.0857 32.8392 39.1217 32.6037 39.1073 32.3684V14.7354C39.1217 14.5001 39.0857 14.2645 39.0022 14.0441C38.9185 13.8237 38.7891 13.6235 38.6224 13.4568C38.4558 13.2902 38.2556 13.1608 38.0352 13.0772C37.8148 12.9936 37.5791 12.9577 37.3438 12.972ZM35.5802 30.6049H14.4193V16.4983H35.5802V30.6049Z" fill="white"/>
<path d="M30.73 39.1637H19.2922C18.9372 39.1304 18.6094 38.9594 18.3792 38.6872C18.149 38.415 18.0347 38.0634 18.0608 37.7079C18.0345 37.3523 18.1487 37.0006 18.3791 36.7284C18.6093 36.456 18.937 36.2849 19.2922 36.2517H30.73C31.085 36.2849 31.4129 36.456 31.6431 36.7284C31.8733 37.0006 31.9875 37.3523 31.9613 37.7079C31.9875 38.0636 31.8733 38.4153 31.6431 38.6875C31.4129 38.9597 31.085 39.1309 30.73 39.1642" fill="white"/>
<path d="M29.8457 19.0502C30.1371 19.0417 30.4242 19.1216 30.6693 19.2795C30.9145 19.4372 31.1061 19.6656 31.219 19.9343C31.332 20.2031 31.3609 20.4997 31.3021 20.7852C31.2432 21.0709 31.0993 21.3318 30.8891 21.534L24.1345 28.2903C23.9307 28.4894 23.6574 28.6008 23.3725 28.6008C23.0877 28.6008 22.8142 28.4894 22.6106 28.2903L19.1826 24.8457C17.7584 23.4875 19.8617 21.3847 21.2195 22.809L23.1253 24.7145C23.1954 24.778 23.2865 24.813 23.3809 24.813C23.4754 24.813 23.5665 24.778 23.6365 24.7145L28.8533 19.4982C28.9813 19.3621 29.1351 19.2525 29.3056 19.1756C29.4762 19.0989 29.6602 19.0567 29.8471 19.0511L29.8457 19.0502Z" fill="white"/>
</g>
<defs>
<clipPath id="clip0_235_2">
<rect width="50" height="50" fill="white"/>
</clipPath>
</defs>
</svg>
