<svg width="434" height="219" viewBox="0 0 434 219" fill="none" xmlns="http://www.w3.org/2000/svg">
<path fill-rule="evenodd" clip-rule="evenodd" d="M0.0246408 199.49H14.3174V144.354L36.6387 192.426C39.167 198.204 42.7993 200.344 49.8323 200.344C56.8653 200.344 60.2808 198.201 62.8929 192.426L85.1033 144.354V199.49H99.507V144.354C99.507 139.003 97.3064 136.428 92.6883 135.036C81.8037 131.825 74.5464 134.609 71.2492 141.779L49.3715 189.316L28.2602 141.779C25.0714 134.609 17.7033 131.825 6.71019 135.036C2.20059 136.428 0.00246291 139 0.00246291 144.354L0 199.49H0.0246408ZM111.404 154.631H125.808V184.932C125.7 186.642 126.358 190.499 134.187 190.602C138.253 190.71 165.192 190.602 165.409 190.602V154.415H179.812V203.987C179.812 216.191 164.287 218.865 157.052 218.975H111.759V209.664H157.168C166.404 208.7 165.305 204.205 165.305 202.706V199.063H134.847C120.663 198.955 111.535 192.853 111.429 185.894V154.627L111.404 154.631ZM420.359 119.513C411.566 119.297 404.745 120.156 399.028 122.512C397.382 123.16 394.74 123.16 394.524 125.19C395.403 126.042 395.509 127.436 396.281 128.617C397.599 130.76 399.91 133.647 401.998 135.144C404.309 136.86 406.618 138.571 409.033 140.071C413.321 142.638 418.158 144.138 422.335 146.708C424.755 148.208 427.173 150.135 429.593 151.742C430.825 152.599 431.571 153.993 433.112 154.526V154.202C432.343 153.242 432.121 151.85 431.354 150.775C430.253 149.707 429.154 148.74 428.052 147.673C424.866 143.497 420.906 139.855 416.618 136.86C413.099 134.503 405.406 131.293 403.977 127.333L403.76 127.117C406.175 126.901 409.033 126.045 411.345 125.402C415.085 124.442 418.491 124.653 422.335 123.691C424.097 123.259 425.854 122.726 427.616 122.191V121.231C425.637 119.304 424.208 116.734 422.121 114.915C416.515 110.205 410.354 105.6 403.977 101.746C400.568 99.6056 396.17 98.2114 392.542 96.3949C391.219 95.7518 389.023 95.4303 388.255 94.36C386.271 92.0084 385.174 88.9009 383.745 86.1149C380.559 80.2262 377.478 73.6968 374.731 67.4866C372.752 63.3113 371.539 59.1359 369.124 55.2821C357.799 37.081 345.482 26.0547 326.572 15.2395C322.506 12.9911 317.668 12.0241 312.525 10.8482L304.28 10.4163C302.518 9.66762 300.761 7.63273 299.221 6.66808C292.954 2.81428 276.791 -5.53642 272.17 5.49226C269.201 12.4512 276.569 19.3021 279.07 22.8368C280.943 25.2988 283.358 28.0823 284.682 30.8659C285.421 32.6848 285.667 34.6141 286.439 36.541C288.196 41.2515 289.847 46.4995 292.156 50.8908C293.388 53.1392 294.682 55.4981 296.222 57.5306C297.101 58.7064 298.642 59.2439 298.969 61.1708C297.429 63.3137 297.323 66.522 296.443 69.2023C292.483 81.3013 294.024 96.2893 299.63 105.173C301.392 107.848 305.544 113.739 311.177 111.489C316.126 109.562 315.022 103.459 316.451 98.1058C316.783 96.822 316.562 95.9654 317.22 95.1063V95.3223L321.729 104.208C325.137 109.454 331.076 114.915 336.022 118.558C338.659 120.485 340.748 123.806 344.046 124.982V124.658H343.829C343.168 123.698 342.178 123.266 341.298 122.517C339.319 120.59 337.121 118.234 335.581 116.093C330.965 110.099 326.899 103.459 323.269 96.6085C321.507 93.2898 319.967 89.6496 318.543 86.3309C317.878 85.0447 317.878 83.1154 316.781 82.4771C315.13 84.8287 312.715 86.8684 311.5 89.7575C309.41 94.36 309.194 100.035 308.425 105.924C307.981 106.032 308.178 105.924 307.981 106.14C304.467 105.286 303.255 101.748 301.936 98.7537C298.639 91.1517 298.087 78.9472 300.946 70.167C301.715 67.9185 305.017 60.8516 303.698 58.7112C303.033 56.6763 300.84 55.5005 299.627 53.8927C298.198 51.8578 296.663 49.2902 295.672 47.0418C293.035 41.0427 291.717 34.4078 288.856 28.4111C287.533 25.6275 285.226 22.736 283.356 20.1684C281.266 17.2768 278.962 15.2419 277.311 11.8177C276.761 10.6419 275.993 8.71256 276.872 7.42636C277.089 6.5697 277.533 6.25055 278.408 6.03458C279.837 4.85877 283.908 6.35613 285.337 6.99443C289.403 8.60218 292.811 10.0996 296.219 12.3456C297.759 13.4158 299.41 15.4507 301.389 15.9882H303.701C307.22 16.7369 311.175 16.2042 314.47 17.1641C320.298 18.9878 325.574 21.6609 330.305 24.5549C344.706 33.4407 356.584 46.0747 364.607 61.1732C365.926 63.6352 366.475 65.8837 367.688 68.4537C369.999 73.7016 372.858 79.0528 375.162 84.1952C377.473 89.2272 379.671 94.3696 382.969 98.545C384.62 100.793 391.214 101.969 394.181 103.147C396.382 104.107 399.787 104.971 401.771 106.147C405.507 108.395 409.245 110.965 412.762 113.427C414.519 114.709 420.019 117.387 420.347 119.523L420.359 119.513ZM308.235 26.4746C306.716 26.4615 305.202 26.6414 303.73 27.0097V27.2257H303.947C304.827 28.939 306.367 30.1172 307.466 31.617L309.997 36.757L310.214 36.541C311.754 35.4708 312.525 33.7575 312.525 31.1899C311.865 30.4412 311.756 29.6901 311.207 28.9414C310.546 27.8712 309.117 27.3337 308.235 26.4794V26.4746Z" fill="#00678C"/>
<path fill-rule="evenodd" clip-rule="evenodd" d="M190.788 199.49H232.129C236.966 199.49 241.586 198.53 245.322 196.814C251.589 194.031 254.558 190.288 254.558 185.361V175.083C254.558 171.124 251.15 167.373 244.337 164.806C240.818 163.522 236.419 162.771 232.131 162.771H214.758C208.93 162.771 206.182 161.055 205.411 157.312C205.303 156.885 205.303 156.455 205.303 156.028V149.71C205.303 149.386 205.303 148.961 205.411 148.534C206.18 145.642 207.72 144.891 212.804 144.359H255.132V135.041H214.891C209.063 135.041 205.985 135.365 203.235 136.222C194.768 138.789 191.03 142.859 191.03 150.029V158.171C191.03 164.482 198.287 169.84 210.601 171.124C211.919 171.232 213.348 171.232 214.778 171.232H229.622C230.172 171.232 230.719 171.232 231.158 171.34C235.667 171.767 237.646 172.516 238.964 174.119C239.844 174.975 240.066 175.727 240.066 176.691V184.826C240.066 185.786 239.406 187.077 238.087 188.145C236.769 189.212 234.674 189.964 231.927 190.072C231.377 190.072 231.052 190.18 230.497 190.18H190.788V199.49ZM344.053 183.326C344.053 192.853 351.446 198.204 366.157 199.279C367.587 199.387 368.905 199.49 370.334 199.49H407.717V190.18H370.007C361.645 190.18 358.459 188.145 358.459 183.221V135.041H344.026V183.329L344.053 183.326ZM263.681 183.751V150.564C263.681 142.105 269.837 136.963 281.825 135.36C283.144 135.252 284.462 135.144 285.67 135.144H312.934C314.364 135.144 315.576 135.252 317.005 135.36C328.989 136.963 335.034 142.103 335.034 150.564V183.751C335.034 190.602 332.508 194.244 326.567 196.709L340.637 209.125H324.038L312.604 199.063L301.056 199.706H285.665C282.844 199.692 280.037 199.334 277.308 198.638C268.191 196.171 263.681 191.463 263.681 183.751V183.751ZM279.181 183.007C279.181 183.434 279.428 183.859 279.514 184.399C280.283 188.25 284.019 190.393 289.736 190.393H302.712L290.84 179.9H307.439L317.882 189.109C319.866 188.037 321.074 186.537 321.512 184.61C321.623 184.183 321.623 183.65 321.623 183.218V151.418C321.623 150.991 321.623 150.566 321.512 150.135C320.743 146.497 317.008 144.464 311.399 144.464H289.738C283.361 144.464 279.184 147.14 279.184 151.418L279.181 183.007Z" fill="#CE8B2C"/>
</svg>
