<svg width="108" height="108" viewBox="0 0 108 108" fill="none" xmlns="http://www.w3.org/2000/svg">
<path d="M53.784 0C43.1466 0 32.748 3.15438 23.9032 9.06424C15.0585 14.9741 8.16487 23.374 4.09409 33.2018C0.023304 43.0295 -1.0418 53.8437 1.03347 64.2767C3.10874 74.7098 8.23117 84.2932 15.753 91.815C23.2748 99.3369 32.8582 104.459 43.2913 106.535C53.7244 108.61 64.5385 107.545 74.3663 103.474C84.194 99.4031 92.5939 92.5095 98.5038 83.6648C104.414 74.8201 107.568 64.4215 107.568 53.784C107.568 39.5196 101.902 25.8394 91.8151 15.753C81.7286 5.66651 68.0484 0 53.784 0ZM53.784 99.477C44.7471 99.4768 35.9131 96.7969 28.3993 91.7761C20.8854 86.7553 15.0291 79.6192 11.5709 71.2701C8.11273 62.921 7.20796 53.734 8.97103 44.8707C10.7341 36.0074 15.0858 27.866 21.4759 21.4759C27.866 15.0858 36.0074 10.7341 44.8707 8.97101C53.734 7.20794 62.9211 8.11271 71.2701 11.5709C79.6192 15.0291 86.7553 20.8854 91.7761 28.3993C96.7969 35.9131 99.4768 44.7471 99.477 53.784C99.4768 65.9024 94.6626 77.5243 86.0935 86.0932C77.5244 94.6621 65.9024 99.477 53.784 99.477Z" fill="#CF3030"/>
<path d="M80.3403 27.909H27.2273C26.7211 27.8784 26.2141 27.9555 25.7399 28.1353C25.2657 28.3152 24.8351 28.5936 24.4765 28.9522C24.1179 29.3108 23.8395 29.7414 23.6596 30.2156C23.4798 30.6898 23.4027 31.1968 23.4333 31.703V69.64C23.4027 70.1462 23.4798 70.6532 23.6596 71.1274C23.8395 71.6016 24.1179 72.0322 24.4765 72.3908C24.8351 72.7494 25.2657 73.0279 25.7399 73.2077C26.2141 73.3875 26.7211 73.4647 27.2273 73.434H80.3403C80.8465 73.4647 81.3535 73.3875 81.8277 73.2077C82.3019 73.0279 82.7325 72.7494 83.0911 72.3908C83.4497 72.0322 83.7282 71.6016 83.908 71.1274C84.0878 70.6532 84.1649 70.1462 84.1343 69.64V31.703C84.1649 31.1968 84.0878 30.6898 83.908 30.2156C83.7282 29.7414 83.4497 29.3108 83.0911 28.9522C82.7325 28.5936 82.3019 28.3152 81.8277 28.1353C81.3535 27.9555 80.8465 27.8784 80.3403 27.909ZM76.5463 65.846H31.0213V35.496H76.5463V65.846Z" fill="#CF3030"/>
<path d="M66.1116 84.26H41.5046C40.741 84.1885 40.0359 83.8205 39.5406 83.2349C39.0453 82.6493 38.7994 81.8929 38.8556 81.128C38.7991 80.3629 39.0449 79.6063 39.5402 79.0205C40.0355 78.4347 40.7408 78.0665 41.5046 77.995H66.1116C66.8754 78.0665 67.5807 78.4347 68.076 79.0205C68.5713 79.6063 68.8171 80.3629 68.7606 81.128C68.8171 81.893 68.5713 82.6497 68.076 83.2355C67.5807 83.8213 66.8754 84.1895 66.1116 84.261" fill="#CF3030"/>
<path d="M64.2092 40.986C64.8361 40.9679 65.4539 41.1398 65.9813 41.4794C66.5087 41.8189 66.9209 42.3101 67.1638 42.8884C67.4068 43.4666 67.469 44.1049 67.3423 44.7192C67.2157 45.3335 66.9061 45.895 66.4542 46.33L51.9222 60.866C51.4842 61.2944 50.8959 61.5343 50.2832 61.5343C49.6705 61.5343 49.0822 61.2944 48.6442 60.866L41.2692 53.455C38.2052 50.533 42.7302 46.009 45.6512 49.073L49.7512 53.173C49.902 53.3094 50.098 53.3849 50.3012 53.3849C50.5044 53.3849 50.7004 53.3094 50.8512 53.173L62.0742 41.95C62.3499 41.6571 62.6806 41.4213 63.0474 41.2562C63.4143 41.0912 63.8101 41 64.2122 40.988L64.2092 40.986Z" fill="#CF3030"/>
</svg>
