<svg width="676" height="451" viewBox="0 0 676 451" fill="none" xmlns="http://www.w3.org/2000/svg">
<path d="M667.379 1.0503e-08H107.049C104.915 0.00194282 102.869 0.851519 101.36 2.36224C99.8505 3.87296 99.0019 5.92137 99 8.05782V388.143C99.0019 390.279 99.8505 392.328 101.36 393.838C102.869 395.349 104.915 396.199 107.049 396.201H667.379C668.543 396.201 669.693 395.948 670.75 395.46C671.806 394.971 672.745 394.259 673.5 393.373C673.564 393.303 673.622 393.229 673.675 393.151C674.155 392.563 674.544 391.906 674.829 391.201C675.234 390.233 675.441 389.193 675.438 388.143V8.05787C675.436 5.91992 674.585 3.87032 673.074 2.35942C671.563 0.848515 669.515 -0.000109011 667.379 1.0503e-08V1.0503e-08ZM673.14 388.143C673.14 389.267 672.81 390.366 672.188 391.303C671.637 392.127 670.888 392.801 670.01 393.262C669.197 393.683 668.294 393.901 667.379 393.9H107.049C105.525 393.898 104.063 393.291 102.985 392.211C101.907 391.132 101.3 389.669 101.298 388.143V8.05787C101.3 6.53161 101.907 5.06838 102.985 3.98915C104.063 2.90991 105.525 2.30278 107.049 2.30093H667.379C668.905 2.30074 670.369 2.9069 671.449 3.98631C672.529 5.06572 673.137 6.53011 673.14 8.05787V388.143Z" fill="#F8F8F8"/>
<path d="M674.284 32.2952H100.147V34.5987H674.284V32.2952Z" fill="#F8F8F8"/>
<path d="M119.707 24.1869C123.52 24.1869 126.61 21.093 126.61 17.2764C126.61 13.4598 123.52 10.3658 119.707 10.3658C115.894 10.3658 112.803 13.4598 112.803 17.2764C112.803 21.093 115.894 24.1869 119.707 24.1869Z" fill="#F8F8F8"/>
<path d="M139.554 24.1869C143.367 24.1869 146.458 21.093 146.458 17.2764C146.458 13.4598 143.367 10.3658 139.554 10.3658C135.742 10.3658 132.651 13.4598 132.651 17.2764C132.651 21.093 135.742 24.1869 139.554 24.1869Z" fill="#F8F8F8"/>
<path d="M159.402 24.1869C163.214 24.1869 166.305 21.093 166.305 17.2764C166.305 13.4598 163.214 10.3658 159.402 10.3658C155.589 10.3658 152.498 13.4598 152.498 17.2764C152.498 21.093 155.589 24.1869 159.402 24.1869Z" fill="#F8F8F8"/>
<path d="M531.312 85.6161H243.301C240.118 85.6161 237.065 84.3505 234.815 82.0977C232.564 79.8448 231.3 76.7893 231.3 73.6033C231.3 70.4173 232.564 67.3618 234.815 65.109C237.065 62.8562 240.118 61.5905 243.301 61.5905H531.312C534.495 61.5905 537.547 62.8562 539.797 65.109C542.048 67.3618 543.312 70.4173 543.312 73.6033C543.312 76.7893 542.048 79.8448 539.797 82.0977C537.547 84.3505 534.495 85.6161 531.312 85.6161ZM243.301 63.4386C240.607 63.4386 238.025 64.5096 236.12 66.4158C234.216 68.3221 233.146 70.9075 233.146 73.6033C233.146 76.2992 234.216 78.8846 236.12 80.7908C238.025 82.6971 240.607 83.768 243.301 83.768H531.312C534.005 83.768 536.588 82.6971 538.492 80.7908C540.396 78.8846 541.466 76.2992 541.466 73.6033C541.466 70.9075 540.396 68.3221 538.492 66.4158C536.588 64.5096 534.005 63.4386 531.312 63.4386H243.301Z" fill="#F8F8F8"/>
<path d="M245.706 159.079H219.859C217.901 159.079 216.022 158.3 214.637 156.914C213.252 155.527 212.474 153.647 212.474 151.687C212.474 149.726 213.252 147.846 214.637 146.459C216.022 145.073 217.901 144.294 219.859 144.294H245.706C247.665 144.294 249.543 145.073 250.928 146.459C252.313 147.846 253.091 149.726 253.091 151.687C253.091 153.647 252.313 155.527 250.928 156.914C249.543 158.3 247.665 159.079 245.706 159.079Z" fill="#CCCCCC"/>
<path d="M276.169 184.029H219.859C217.901 184.029 216.022 183.25 214.637 181.863C213.252 180.477 212.474 178.597 212.474 176.636C212.474 174.676 213.252 172.795 214.637 171.409C216.022 170.023 217.901 169.244 219.859 169.244H276.169C278.128 169.244 280.006 170.023 281.391 171.409C282.776 172.795 283.554 174.676 283.554 176.636C283.554 178.597 282.776 180.477 281.391 181.863C280.006 183.25 278.128 184.029 276.169 184.029Z" fill="#CCCCCC"/>
<path d="M250.322 268.118H224.475C222.516 268.118 220.638 267.339 219.253 265.953C217.868 264.567 217.09 262.686 217.09 260.726C217.09 258.765 217.868 256.885 219.253 255.499C220.638 254.112 222.516 253.333 224.475 253.333H250.322C252.281 253.333 254.159 254.112 255.544 255.499C256.929 256.885 257.707 258.765 257.707 260.726C257.707 262.686 256.929 264.567 255.544 265.953C254.159 267.339 252.281 268.118 250.322 268.118Z" fill="#CCCCCC"/>
<path d="M280.785 293.068H224.475C222.516 293.068 220.638 292.289 219.253 290.903C217.868 289.516 217.09 287.636 217.09 285.675C217.09 283.715 217.868 281.834 219.253 280.448C220.638 279.062 222.516 278.283 224.475 278.283H280.785C282.743 278.283 284.622 279.062 286.007 280.448C287.392 281.834 288.17 283.715 288.17 285.675C288.17 287.636 287.392 289.516 286.007 290.903C284.622 292.289 282.743 293.068 280.785 293.068Z" fill="#CCCCCC"/>
<path d="M420.175 265.346H394.328C392.369 265.346 390.491 264.567 389.106 263.181C387.721 261.794 386.943 259.914 386.943 257.954C386.943 255.993 387.721 254.113 389.106 252.726C390.491 251.34 392.369 250.561 394.328 250.561H420.175C422.133 250.561 424.012 251.34 425.397 252.726C426.782 254.113 427.56 255.993 427.56 257.954C427.56 259.914 426.782 261.794 425.397 263.181C424.012 264.567 422.133 265.346 420.175 265.346Z" fill="#CCCCCC"/>
<path d="M450.638 290.296H394.328C392.369 290.296 390.491 289.517 389.106 288.131C387.721 286.744 386.943 284.864 386.943 282.903C386.943 280.943 387.721 279.062 389.106 277.676C390.491 276.29 392.369 275.511 394.328 275.511H450.638C452.596 275.511 454.474 276.29 455.859 277.676C457.244 279.062 458.022 280.943 458.022 282.903C458.022 284.864 457.244 286.744 455.859 288.131C454.474 289.517 452.596 290.296 450.638 290.296Z" fill="#CCCCCC"/>
<path d="M417.406 163.699H391.558C389.6 163.699 387.721 162.92 386.336 161.534C384.952 160.148 384.173 158.267 384.173 156.307C384.173 154.346 384.952 152.466 386.336 151.08C387.721 149.693 389.6 148.914 391.558 148.914H417.406C419.364 148.914 421.242 149.693 422.627 151.08C424.012 152.466 424.79 154.346 424.79 156.307C424.79 158.267 424.012 160.148 422.627 161.534C421.242 162.92 419.364 163.699 417.406 163.699Z" fill="#CCCCCC"/>
<path d="M447.868 188.649H391.558C389.6 188.649 387.721 187.87 386.336 186.484C384.952 185.097 384.173 183.217 384.173 181.256C384.173 179.296 384.952 177.416 386.336 176.029C387.721 174.643 389.6 173.864 391.558 173.864H447.868C449.827 173.864 451.705 174.643 453.09 176.029C454.475 177.416 455.253 179.296 455.253 181.256C455.253 183.217 454.475 185.097 453.09 186.484C451.705 187.87 449.827 188.649 447.868 188.649Z" fill="#CCCCCC"/>
<path d="M590.028 158.155H564.18C562.222 158.155 560.343 157.376 558.959 155.99C557.574 154.603 556.796 152.723 556.796 150.762C556.796 148.802 557.574 146.922 558.959 145.535C560.343 144.149 562.222 143.37 564.18 143.37H590.028C591.986 143.37 593.865 144.149 595.249 145.535C596.634 146.922 597.413 148.802 597.413 150.762C597.413 152.723 596.634 154.603 595.249 155.99C593.865 157.376 591.986 158.155 590.028 158.155Z" fill="#CCCCCC"/>
<path d="M620.49 183.105H564.18C562.222 183.105 560.343 182.326 558.959 180.939C557.574 179.553 556.796 177.673 556.796 175.712C556.796 173.751 557.574 171.871 558.959 170.485C560.343 169.098 562.222 168.32 564.18 168.32H620.49C622.449 168.32 624.327 169.098 625.712 170.485C627.097 171.871 627.875 173.751 627.875 175.712C627.875 177.673 627.097 179.553 625.712 180.939C624.327 182.326 622.449 183.105 620.49 183.105Z" fill="#CCCCCC"/>
<path d="M174.256 191.883C189.551 191.883 201.949 179.472 201.949 164.161C201.949 148.851 189.551 136.439 174.256 136.439C158.961 136.439 146.562 148.851 146.562 164.161C146.562 179.472 158.961 191.883 174.256 191.883Z" fill="#CF3030"/>
<path d="M187.18 176.636H161.332C160.598 176.636 159.894 176.343 159.375 175.823C158.856 175.304 158.564 174.599 158.563 173.864V154.459C158.564 153.724 158.856 153.019 159.375 152.5C159.894 151.98 160.598 151.687 161.332 151.687H168.609C169.082 151.685 169.548 151.805 169.961 152.036C170.374 152.267 170.721 152.601 170.967 153.006L172.997 156.307H187.18C187.914 156.308 188.618 156.6 189.137 157.12C189.656 157.64 189.948 158.344 189.949 159.079V173.864C189.948 174.599 189.656 175.304 189.137 175.823C188.618 176.343 187.914 176.636 187.18 176.636V176.636ZM161.332 153.535C161.088 153.535 160.853 153.633 160.68 153.806C160.507 153.979 160.41 154.214 160.409 154.459V173.864C160.41 174.109 160.507 174.344 160.68 174.517C160.853 174.69 161.088 174.788 161.332 174.788H187.18C187.424 174.788 187.659 174.69 187.832 174.517C188.005 174.344 188.102 174.109 188.103 173.864V159.079C188.102 158.834 188.005 158.599 187.832 158.426C187.659 158.253 187.424 158.155 187.18 158.155H171.965L169.395 153.974C169.313 153.84 169.197 153.728 169.06 153.651C168.922 153.574 168.767 153.534 168.609 153.535H161.332Z" fill="#F8F8F8"/>
<path d="M344.109 196.503C359.403 196.503 371.802 184.092 371.802 168.782C371.802 153.471 359.403 141.06 344.109 141.06C328.814 141.06 316.415 153.471 316.415 168.782C316.415 184.092 328.814 196.503 344.109 196.503Z" fill="#CF3030"/>
<path d="M356.109 186.339H332.108C331.374 186.338 330.67 186.046 330.151 185.526C329.632 185.006 329.34 184.302 329.339 183.567V153.997C329.34 153.262 329.632 152.557 330.151 152.037C330.67 151.518 331.374 151.225 332.108 151.225H349.499C350.13 151.225 350.742 151.441 351.234 151.836L357.844 157.153C358.167 157.412 358.429 157.741 358.608 158.115C358.787 158.489 358.88 158.899 358.879 159.314V183.567C358.878 184.302 358.586 185.006 358.067 185.526C357.547 186.046 356.844 186.338 356.109 186.339V186.339ZM332.108 153.073C331.864 153.073 331.629 153.171 331.456 153.344C331.283 153.517 331.186 153.752 331.185 153.997V183.567C331.186 183.812 331.283 184.047 331.456 184.22C331.629 184.393 331.864 184.491 332.108 184.491H356.109C356.354 184.491 356.589 184.393 356.762 184.22C356.935 184.047 357.032 183.812 357.032 183.567V159.314C357.033 159.176 357.002 159.039 356.942 158.914C356.882 158.79 356.795 158.68 356.688 158.594L350.077 153.276C349.913 153.145 349.709 153.073 349.499 153.073H332.108Z" fill="#F8F8F8"/>
<path d="M351.494 164.162H336.724C336.479 164.162 336.244 164.064 336.071 163.891C335.898 163.718 335.801 163.483 335.801 163.237C335.801 162.992 335.898 162.757 336.071 162.584C336.244 162.411 336.479 162.313 336.724 162.313H351.494C351.739 162.313 351.973 162.411 352.146 162.584C352.32 162.757 352.417 162.992 352.417 163.237C352.417 163.483 352.32 163.718 352.146 163.891C351.973 164.064 351.739 164.162 351.494 164.162Z" fill="#F8F8F8"/>
<path d="M351.494 169.706H336.724C336.479 169.706 336.244 169.609 336.071 169.435C335.898 169.262 335.801 169.027 335.801 168.782C335.801 168.537 335.898 168.302 336.071 168.128C336.244 167.955 336.479 167.858 336.724 167.858H351.494C351.739 167.858 351.973 167.955 352.146 168.128C352.32 168.302 352.417 168.537 352.417 168.782C352.417 169.027 352.32 169.262 352.146 169.435C351.973 169.609 351.739 169.706 351.494 169.706Z" fill="#F8F8F8"/>
<path d="M351.494 175.25H336.724C336.479 175.25 336.244 175.153 336.071 174.98C335.898 174.806 335.801 174.571 335.801 174.326C335.801 174.081 335.898 173.846 336.071 173.673C336.244 173.499 336.479 173.402 336.724 173.402H351.494C351.739 173.402 351.973 173.499 352.146 173.673C352.32 173.846 352.417 174.081 352.417 174.326C352.417 174.571 352.32 174.806 352.146 174.98C351.973 175.153 351.739 175.25 351.494 175.25Z" fill="#F8F8F8"/>
<path d="M527.808 173.402H501.961C501.227 173.401 500.523 173.109 500.003 172.589C499.484 172.07 499.192 171.365 499.191 170.63V155.845C499.192 155.11 499.484 154.405 500.003 153.886C500.523 153.366 501.227 153.074 501.961 153.073H527.808C528.542 153.074 529.246 153.366 529.765 153.886C530.284 154.405 530.576 155.11 530.577 155.845V170.63C530.576 171.365 530.284 172.07 529.765 172.589C529.246 173.109 528.542 173.401 527.808 173.402V173.402ZM501.961 154.921C501.716 154.921 501.481 155.019 501.308 155.192C501.135 155.365 501.038 155.6 501.038 155.845V170.63C501.038 170.875 501.135 171.11 501.308 171.283C501.481 171.456 501.716 171.554 501.961 171.554H527.808C528.053 171.554 528.287 171.456 528.46 171.283C528.633 171.11 528.731 170.875 528.731 170.63V155.845C528.731 155.6 528.633 155.365 528.46 155.192C528.287 155.019 528.053 154.921 527.808 154.921H501.961Z" fill="#F8F8F8"/>
<path d="M514.884 165.675C514.366 165.676 513.857 165.531 513.417 165.257L499.625 156.629C499.418 156.498 499.271 156.291 499.216 156.053C499.161 155.814 499.203 155.563 499.333 155.356C499.463 155.148 499.669 155.001 499.908 154.945C500.146 154.89 500.396 154.932 500.604 155.061L514.396 163.69C514.543 163.781 514.712 163.829 514.885 163.829C515.058 163.829 515.227 163.781 515.374 163.69L529.165 155.061C529.372 154.932 529.623 154.89 529.861 154.945C530.099 155.001 530.306 155.148 530.435 155.356C530.565 155.563 530.607 155.814 530.553 156.053C530.498 156.291 530.351 156.498 530.144 156.629L516.353 165.257C515.912 165.531 515.403 165.676 514.884 165.675V165.675Z" fill="#F8F8F8"/>
<path d="M174.256 300.922C189.551 300.922 201.949 288.511 201.949 273.201C201.949 257.89 189.551 245.479 174.256 245.479C158.961 245.479 146.562 257.89 146.562 273.201C146.562 288.511 158.961 300.922 174.256 300.922Z" fill="#CF3030"/>
<path d="M187.18 283.365H161.332C160.598 283.365 159.894 283.072 159.375 282.553C158.856 282.033 158.564 281.328 158.563 280.593V265.808C158.564 265.073 158.856 264.369 159.375 263.849C159.894 263.329 160.598 263.037 161.332 263.036H187.18C187.914 263.037 188.618 263.329 189.137 263.849C189.656 264.369 189.948 265.073 189.949 265.808V280.593C189.948 281.328 189.656 282.033 189.137 282.553C188.618 283.072 187.914 283.365 187.18 283.365ZM161.332 264.884C161.088 264.884 160.853 264.982 160.68 265.155C160.507 265.328 160.41 265.563 160.409 265.808V280.593C160.41 280.838 160.507 281.073 160.68 281.246C160.853 281.42 161.088 281.517 161.332 281.517H187.18C187.424 281.517 187.659 281.42 187.832 281.246C188.005 281.073 188.102 280.838 188.103 280.593V265.808C188.102 265.563 188.005 265.328 187.832 265.155C187.659 264.982 187.424 264.884 187.18 264.884H161.332Z" fill="#F8F8F8"/>
<path d="M183.083 283.365H164.506C164.182 283.366 163.864 283.28 163.583 283.118C163.302 282.956 163.069 282.723 162.907 282.442C162.745 282.161 162.66 281.842 162.66 281.517C162.66 281.193 162.745 280.874 162.907 280.593L168.503 270.891C168.665 270.61 168.898 270.376 169.179 270.214C169.459 270.052 169.778 269.967 170.102 269.967C170.426 269.967 170.744 270.052 171.025 270.214C171.306 270.376 171.539 270.61 171.701 270.891L175.315 277.157L177.408 273.527C177.571 273.246 177.804 273.012 178.084 272.85C178.365 272.688 178.683 272.602 179.007 272.602C179.332 272.602 179.65 272.688 179.931 272.85C180.211 273.012 180.444 273.246 180.606 273.527L184.682 280.593C184.844 280.874 184.929 281.193 184.929 281.517C184.929 281.842 184.844 282.161 184.682 282.442C184.52 282.723 184.287 282.956 184.006 283.118C183.725 283.28 183.407 283.366 183.083 283.365H183.083ZM183.083 281.517L179.007 274.451L176.114 279.467C176.033 279.608 175.917 279.724 175.776 279.805C175.636 279.886 175.477 279.929 175.315 279.929V279.929C175.153 279.929 174.994 279.886 174.853 279.805C174.713 279.724 174.596 279.608 174.515 279.467L170.102 271.815L164.506 281.517H183.083Z" fill="#F8F8F8"/>
<path d="M184.41 270.428C185.43 270.428 186.256 269.601 186.256 268.58C186.256 267.56 185.43 266.732 184.41 266.732C183.391 266.732 182.564 267.56 182.564 268.58C182.564 269.601 183.391 270.428 184.41 270.428Z" fill="#F8F8F8"/>
<path d="M345.955 298.15C361.25 298.15 373.648 285.739 373.648 270.428C373.648 255.118 361.25 242.707 345.955 242.707C330.66 242.707 318.261 255.118 318.261 270.428C318.261 285.739 330.66 298.15 345.955 298.15Z" fill="#CF3030"/>
<path d="M353.34 286.6H338.57C337.714 286.599 336.892 286.258 336.287 285.651C335.681 285.045 335.34 284.223 335.339 283.365C335.339 280.547 336.458 277.844 338.449 275.851C340.439 273.858 343.14 272.739 345.955 272.739C348.771 272.739 351.471 273.858 353.462 275.851C355.452 277.844 356.571 280.547 356.571 283.365C356.57 284.223 356.229 285.045 355.623 285.651C355.018 286.258 354.197 286.599 353.34 286.6ZM345.955 274.587C343.63 274.589 341.401 275.515 339.757 277.161C338.113 278.807 337.188 281.038 337.185 283.365C337.186 283.733 337.332 284.085 337.591 284.345C337.851 284.605 338.203 284.751 338.57 284.752H353.34C353.707 284.751 354.059 284.605 354.319 284.345C354.578 284.085 354.724 283.733 354.725 283.365C354.722 281.038 353.797 278.807 352.153 277.161C350.509 275.515 348.28 274.589 345.955 274.587V274.587Z" fill="#F8F8F8"/>
<path d="M74.714 439.778H86.0314L91.415 396.081L74.7122 396.082L74.714 439.778Z" fill="#FFB8B8"/>
<path d="M107.857 450.296L72.2892 450.298L72.2886 436.541L94.1145 436.54C97.7592 436.54 101.255 437.989 103.832 440.569C106.409 443.149 107.857 446.648 107.857 450.296V450.296L107.857 450.296Z" fill="#CCCCCC"/>
<path d="M32.2507 439.778H43.5681L48.9517 396.081L32.2489 396.082L32.2507 439.778Z" fill="#FFB8B8"/>
<path d="M65.3942 450.296L29.8259 450.298L29.8253 436.541L51.6513 436.54C55.2959 436.54 58.7914 437.989 61.3687 440.569C63.946 443.149 65.394 446.648 65.3942 450.296V450.296L65.3942 450.296Z" fill="#CCCCCC"/>
<path d="M33.6329 309.635C34.8522 308.85 35.8847 307.806 36.6576 306.579C37.4306 305.351 37.9253 303.968 38.1068 302.529C38.2883 301.089 38.1522 299.627 37.7081 298.245C37.264 296.864 36.5228 295.596 35.5365 294.533L42.9884 188.674L21.5232 190.758L20.9336 294.425C19.2583 296.202 18.2924 298.533 18.2189 300.975C18.1454 303.417 18.9693 305.802 20.5347 307.676C22.1001 309.551 24.298 310.786 26.7121 311.147C29.1262 311.508 31.5887 310.97 33.6329 309.635H33.6329Z" fill="#FFB8B8"/>
<path d="M75.0513 417.77C74.0359 417.766 73.0565 417.392 72.297 416.718C71.5375 416.043 71.0501 415.114 70.9262 414.105L64.3478 359.029C64.2553 358.253 63.8855 357.537 63.3068 357.014C62.728 356.49 61.9795 356.193 61.1994 356.179C60.4193 356.164 59.6603 356.433 59.0627 356.935C58.465 357.437 58.0691 358.139 57.948 358.911L49.6612 411.644C49.5112 412.625 49.0144 413.519 48.2612 414.163C47.508 414.808 46.5486 415.16 45.5577 415.156H32.1264C31.5783 415.156 31.0355 415.048 30.5295 414.837C30.0235 414.626 29.5641 414.317 29.178 413.927C28.7919 413.538 28.4865 413.076 28.2796 412.567C28.0727 412.059 27.9683 411.515 27.9724 410.967L34.3827 294.041C34.3851 293.046 34.7462 292.085 35.3997 291.334C36.0532 290.584 36.9551 290.095 37.9399 289.957L87.7822 282.714C88.3744 282.628 88.9782 282.672 89.5522 282.841C90.1262 283.01 90.6569 283.301 91.108 283.695C91.5591 284.089 91.92 284.575 92.1659 285.121C92.4119 285.667 92.5371 286.26 92.533 286.859L91.6635 413.046C91.6562 414.109 91.2419 415.13 90.506 415.897C89.7701 416.664 88.7684 417.119 87.7072 417.17L75.2485 417.764C75.1825 417.768 75.1168 417.77 75.0513 417.77Z" fill="#CCCCCC"/>
<path d="M49.2109 298.458C44.4167 298.44 39.6617 297.593 35.1558 295.953C34.3919 295.672 33.7285 295.17 33.2491 294.511C32.7697 293.853 32.4959 293.067 32.4621 292.253C32.0321 282.701 29.5166 233.534 22.1929 203.544C20.7695 197.661 21.1176 191.487 23.1935 185.802C25.2693 180.117 28.98 175.174 33.8578 171.596C34.2518 171.312 34.6534 171.034 35.0627 170.761C39.2984 167.939 44.1851 166.248 49.2579 165.85C54.3308 165.452 59.421 166.36 64.0443 168.487C68.8205 170.626 72.9704 173.954 76.0992 178.152C79.2279 182.35 81.2314 187.28 81.919 192.473L93.8618 281.23C93.9385 281.785 93.9018 282.349 93.7541 282.89C93.6063 283.43 93.3505 283.934 93.0022 284.373C92.6615 284.808 92.2359 285.17 91.7514 285.435C91.2669 285.701 90.7334 285.866 90.1835 285.919C86.0453 286.332 77.4625 287.937 66.478 294.047C61.1958 296.976 55.2494 298.495 49.2109 298.458V298.458Z" fill="#F8F8F8"/>
<path d="M56.4884 156.436C69.0101 156.436 79.161 146.274 79.161 133.74C79.161 121.205 69.0101 111.044 56.4884 111.044C43.9667 111.044 33.8158 121.205 33.8158 133.74C33.8158 146.274 43.9667 156.436 56.4884 156.436Z" fill="#FFB8B8"/>
<path d="M138.649 178.33C138.536 178.829 138.462 179.335 138.428 179.846L98.7734 202.746L89.1348 197.191L78.8595 210.657L99.4792 225.368L144.719 189.642C146.564 190.325 148.573 190.43 150.48 189.943C152.386 189.455 154.099 188.398 155.39 186.913C156.682 185.427 157.491 183.583 157.71 181.626C157.929 179.669 157.548 177.691 156.617 175.956C155.686 174.221 154.249 172.811 152.498 171.913C150.747 171.015 148.764 170.673 146.814 170.93C144.863 171.188 143.037 172.034 141.579 173.356C140.12 174.678 139.098 176.413 138.649 178.33V178.33Z" fill="#FFB8B8"/>
<path d="M40.4441 151.696C44.6738 156.206 52.5289 153.785 53.08 147.623C53.1232 147.145 53.1201 146.663 53.0706 146.186C52.7861 143.456 51.2109 140.979 51.5882 138.097C51.6736 137.38 51.9406 136.696 52.3637 136.111C55.7342 131.593 63.6463 138.132 66.8273 134.042C68.7778 131.534 66.485 127.585 67.9818 124.782C69.9573 121.083 75.8087 122.908 79.4781 120.882C83.5608 118.627 83.3166 112.357 80.6291 108.543C77.3516 103.892 71.605 101.41 65.93 101.052C60.2551 100.694 54.6192 102.23 49.3211 104.297C43.3014 106.645 37.332 109.891 33.6276 115.189C29.1226 121.633 28.689 130.296 30.9421 137.83C32.3126 142.414 36.9901 148.013 40.4441 151.696Z" fill="#CCCCCC"/>
<path d="M130.159 450.362H0.923113C0.678288 450.362 0.44349 450.265 0.270373 450.091C0.0972556 449.918 0 449.683 0 449.438C0 449.193 0.0972556 448.958 0.270373 448.784C0.44349 448.611 0.678288 448.514 0.923113 448.514H130.159C130.404 448.514 130.639 448.611 130.812 448.784C130.985 448.958 131.082 449.193 131.082 449.438C131.082 449.683 130.985 449.918 130.812 450.091C130.639 450.265 130.404 450.362 130.159 450.362Z" fill="#F8F8F8"/>
</svg>
