<svg width="321" height="324" viewBox="0 0 321 324" fill="none" xmlns="http://www.w3.org/2000/svg">
<g clip-path="url(#clip0)">
<path d="M160.5 0C128.756 0 97.7251 9.50058 71.331 27.3003C44.937 45.1001 24.3653 70.3996 12.2174 99.9995C0.0695429 129.599 -3.10889 162.17 3.08403 193.593C9.27696 225.016 24.5631 253.88 47.0094 276.535C69.4557 299.19 98.0541 314.618 129.188 320.868C160.322 327.119 192.593 323.911 221.921 311.65C251.248 299.39 276.315 278.627 293.951 251.988C311.587 225.348 321 194.029 321 161.991C321 119.028 304.09 77.8251 273.991 47.4459C243.891 17.0668 203.067 0 160.5 0ZM160.5 299.612C133.532 299.611 107.171 291.54 84.748 276.418C62.3254 261.296 44.8493 239.803 34.5295 214.656C24.2097 189.51 21.5097 161.84 26.771 135.145C32.0323 108.45 45.0185 83.9287 64.0875 64.6826C83.1565 45.4365 107.452 32.3297 133.901 27.0195C160.351 21.7094 187.766 24.4344 212.681 34.8501C237.596 45.2657 258.892 62.9042 273.874 85.535C288.857 108.166 296.855 134.772 296.855 161.991C296.854 198.49 282.488 233.493 256.917 259.302C231.345 285.11 196.663 299.612 160.5 299.612Z" fill="#146FC4"/>
<path d="M239.747 84.0584H81.2498C79.7391 83.9661 78.2263 84.1985 76.8112 84.7401C75.3961 85.2817 74.1111 86.1203 73.0409 87.2003C71.9708 88.2804 71.1399 89.5774 70.6033 91.0057C70.0667 92.4339 69.8364 93.9608 69.9279 95.4855V209.747C69.8364 211.272 70.0667 212.798 70.6033 214.227C71.1399 215.655 71.9708 216.952 73.0409 218.032C74.1111 219.112 75.3961 219.951 76.8112 220.492C78.2263 221.034 79.7391 221.266 81.2498 221.174H239.747C241.258 221.266 242.771 221.034 244.186 220.492C245.601 219.951 246.886 219.112 247.956 218.032C249.026 216.952 249.857 215.655 250.394 214.227C250.93 212.798 251.161 211.272 251.069 209.747V95.4855C251.161 93.9608 250.93 92.4339 250.394 91.0057C249.857 89.5774 249.026 88.2804 247.956 87.2003C246.886 86.1203 245.601 85.2817 244.186 84.7401C242.771 84.1985 241.258 83.9661 239.747 84.0584ZM228.425 198.32H92.5717V106.909H228.425V198.32Z" fill="#146FC3"/>
<path d="M197.286 253.781H123.855C121.576 253.565 119.472 252.457 117.994 250.693C116.516 248.929 115.782 246.651 115.95 244.347C115.781 242.043 116.514 239.764 117.993 238C119.471 236.235 121.575 235.126 123.855 234.911H197.286C199.565 235.126 201.67 236.235 203.148 238C204.626 239.764 205.359 242.043 205.191 244.347C205.359 246.652 204.626 248.931 203.148 250.695C201.67 252.459 199.565 253.568 197.286 253.784" fill="#146FC3"/>
<path d="M191.61 123.445C193.481 123.39 195.324 123.908 196.898 124.931C198.472 125.953 199.702 127.433 200.427 129.174C201.152 130.916 201.338 132.838 200.96 134.688C200.582 136.539 199.658 138.23 198.309 139.54L154.944 183.321C153.636 184.611 151.881 185.333 150.052 185.333C148.224 185.333 146.468 184.611 145.161 183.321L123.153 161C114.01 152.199 127.513 138.573 136.23 147.802L148.465 160.15C148.915 160.561 149.5 160.788 150.106 160.788C150.713 160.788 151.298 160.561 151.747 160.15L185.239 126.348C186.061 125.466 187.048 124.756 188.143 124.258C189.238 123.761 190.419 123.487 191.619 123.451L191.61 123.445Z" fill="#146FC3"/>
</g>
<defs>
<clipPath id="clip0">
<rect width="321" height="324" fill="white"/>
</clipPath>
</defs>
</svg>
