<svg xmlns="http://www.w3.org/2000/svg" width="415.999" height="160.124"
    viewBox="0 0 415.999 160.124" tabindex="0">
    <g transform="translate(-48 -175.938)">
        <path id="svg_circle"
            d="M53.784.008a53.784,53.784,0,1,0,53.784,53.784A53.784,53.784,0,0,0,53.784.008Zm0,99.477A45.692,45.692,0,1,1,99.477,53.792,45.693,45.693,0,0,1,53.784,99.484Z"
            transform="translate(201.937 175.93)"></path>
        <path id="svg_text"
            d="M-185.95,0h-19.8a1.754,1.754,0,0,1-1.278-.395,1.754,1.754,0,0,1-.4-1.278h0V-7.2a1.754,1.754,0,0,1,.4-1.278,1.754,1.754,0,0,1,1.278-.395h4.6V-24.49h-4.6a1.754,1.754,0,0,1-1.278-.395,1.754,1.754,0,0,1-.4-1.278h0v-5.623a1.754,1.754,0,0,1,.4-1.278,1.754,1.754,0,0,1,1.278-.395h19.8a1.754,1.754,0,0,1,1.278.395,1.754,1.754,0,0,1,.4,1.278h0v5.623a1.754,1.754,0,0,1-.4,1.278,1.754,1.754,0,0,1-1.278.395h-4.508V-8.876h4.508a1.754,1.754,0,0,1,1.278.395,1.754,1.754,0,0,1,.4,1.278h0v5.53a1.754,1.754,0,0,1-.4,1.278A1.754,1.754,0,0,1-185.95,0Zm22.91,0h-14.685A1.754,1.754,0,0,1-179-.395a1.754,1.754,0,0,1-.395-1.278h0V-7.11A1.754,1.754,0,0,1-179-8.388a1.754,1.754,0,0,1,1.278-.395h12.5a1.069,1.069,0,0,0,.906-.395,1.522,1.522,0,0,0,.3-.953h0a1.83,1.83,0,0,0-.3-1.162,1.228,1.228,0,0,0-.906-.418h0l-6.97-.976a10.117,10.117,0,0,1-5.228-2.138Q-179.4-16.5-179.4-20.4h0V-25.28a7.424,7.424,0,0,1,2.556-6.064,10.764,10.764,0,0,1,7.063-2.114h13.012a1.754,1.754,0,0,1,1.278.395,1.754,1.754,0,0,1,.4,1.278h0v5.53a1.754,1.754,0,0,1-.4,1.278,1.754,1.754,0,0,1-1.278.395h-10.827a1.136,1.136,0,0,0-.929.395,1.519,1.519,0,0,0-.325,1h0a1.615,1.615,0,0,0,.325,1.022,1.236,1.236,0,0,0,.929.465h0l6.924.929a10.256,10.256,0,0,1,5.251,2.138q2,1.673,2,5.576h0v4.879A7.393,7.393,0,0,1-156-2.114,10.783,10.783,0,0,1-163.04,0Zm26.813-23.7h0l-2.184,7.063h7.3L-133.3-23.7a1.768,1.768,0,0,0-.4-.6.711.711,0,0,0-.488-.186h-1.162a.711.711,0,0,0-.488.186A1.767,1.767,0,0,0-136.227-23.7Zm-2.649,15.521v6.506a1.754,1.754,0,0,1-.4,1.278A1.754,1.754,0,0,1-140.549,0h-6.831a1.754,1.754,0,0,1-1.278-.395,1.754,1.754,0,0,1-.4-1.278h0V-13.941a13.748,13.748,0,0,1,.441-3.206,35.359,35.359,0,0,1,1.371-4.229h0l4.043-10.549a2.18,2.18,0,0,1,.86-1.162,2.761,2.761,0,0,1,1.51-.372h12.5a2.667,2.667,0,0,1,1.464.372,2.18,2.18,0,0,1,.86,1.162h0l4.043,10.549a35.358,35.358,0,0,1,1.371,4.229,13.748,13.748,0,0,1,.441,3.206h0V-1.673a1.754,1.754,0,0,1-.395,1.278A1.754,1.754,0,0,1-121.821,0h-7.017a2.012,2.012,0,0,1-1.371-.395,1.637,1.637,0,0,1-.441-1.278h0V-8.179ZM-105.557,0h-7.2a1.754,1.754,0,0,1-1.278-.395,1.754,1.754,0,0,1-.395-1.278h0V-31.785a1.754,1.754,0,0,1,.395-1.278,1.754,1.754,0,0,1,1.278-.395h7.2a1.754,1.754,0,0,1,1.278.395,1.754,1.754,0,0,1,.395,1.278h0V-21.1h1.859l4.786-10.828a2.329,2.329,0,0,1,.883-1.185,2.681,2.681,0,0,1,1.441-.349h7.156a1.23,1.23,0,0,1,1.069.395,1.149,1.149,0,0,1-.046,1.139h0L-91.476-21.1a5.821,5.821,0,0,1,4.159,1.836,6.372,6.372,0,0,1,1.557,4.484h0v13.1a1.754,1.754,0,0,1-.395,1.278A1.754,1.754,0,0,1-87.433,0H-94.59a1.754,1.754,0,0,1-1.278-.395,1.754,1.754,0,0,1-.395-1.278h0v-9.062a1.688,1.688,0,0,0-.372-1.162,1.415,1.415,0,0,0-1.115-.418h-6.134V-1.673a1.754,1.754,0,0,1-.395,1.278A1.754,1.754,0,0,1-105.557,0Zm51.349,0H-68.845q-5.809,0-8.62-2.324T-80.277-9.48h0v-14.5q0-4.833,2.811-7.156t8.62-2.323h11.618a1.754,1.754,0,0,1,1.278.395,1.754,1.754,0,0,1,.395,1.278h0v5.623a1.754,1.754,0,0,1-.395,1.278,1.754,1.754,0,0,1-1.278.395h-9.666a3.292,3.292,0,0,0-2.138.581,2.139,2.139,0,0,0-.7,1.743h0V-11.06a2.407,2.407,0,0,0,.534,1.719,2.122,2.122,0,0,0,1.6.558h4.508v-7.249a1.754,1.754,0,0,1,.395-1.278,1.754,1.754,0,0,1,1.278-.395h7.2a1.754,1.754,0,0,1,1.278.395,1.754,1.754,0,0,1,.395,1.278h0V-1.673a1.754,1.754,0,0,1-.395,1.278A1.754,1.754,0,0,1-54.207,0Zm21.33-25.094h-3.485v5.948h3.485a1.823,1.823,0,0,0,1.626-.627,2.746,2.746,0,0,0,.418-1.557h0v-1.58a2.746,2.746,0,0,0-.418-1.557,1.823,1.823,0,0,0-1.626-.627ZM-38.036,0h-7.156A1.754,1.754,0,0,1-46.47-.395a1.754,1.754,0,0,1-.395-1.278h0V-31.785a1.754,1.754,0,0,1,.395-1.278,1.754,1.754,0,0,1,1.278-.395h15.475q5.2,0,7.18,2.161a7.977,7.977,0,0,1,1.975,5.6h0v2.138a8.506,8.506,0,0,1-.581,3.323,3.618,3.618,0,0,1-2.021,1.975h0A6.114,6.114,0,0,1-19.1-16.218a6.839,6.839,0,0,1,1.557,4.693h0v9.852a1.754,1.754,0,0,1-.395,1.278A1.754,1.754,0,0,1-19.215,0h-7.2A1.754,1.754,0,0,1-27.7-.395a1.754,1.754,0,0,1-.395-1.278h0v-7.11a2.38,2.38,0,0,0-.395-1.51,1.674,1.674,0,0,0-1.371-.488h-6.506v9.108a1.754,1.754,0,0,1-.395,1.278A1.754,1.754,0,0,1-38.036,0ZM-.209-23.7h0l-2.184,7.063H4.9L2.718-23.7a1.768,1.768,0,0,0-.395-.6.711.711,0,0,0-.488-.186H.674a.711.711,0,0,0-.488.186A1.768,1.768,0,0,0-.209-23.7ZM-2.858-8.179v6.506A1.754,1.754,0,0,1-3.253-.395,1.754,1.754,0,0,1-4.531,0h-6.831A1.754,1.754,0,0,1-12.64-.395a1.754,1.754,0,0,1-.395-1.278h0V-13.941a13.748,13.748,0,0,1,.441-3.206,35.359,35.359,0,0,1,1.371-4.229h0L-7.18-31.925a2.18,2.18,0,0,1,.86-1.162,2.761,2.761,0,0,1,1.51-.372h12.5a2.667,2.667,0,0,1,1.464.372,2.18,2.18,0,0,1,.86,1.162h0l4.043,10.549a35.359,35.359,0,0,1,1.371,4.229,13.748,13.748,0,0,1,.441,3.206h0V-1.673a1.754,1.754,0,0,1-.395,1.278A1.754,1.754,0,0,1,14.2,0H7.18A2.012,2.012,0,0,1,5.809-.395a1.637,1.637,0,0,1-.441-1.278h0V-8.179ZM30.229,0H23.258A1.754,1.754,0,0,1,21.98-.395a1.754,1.754,0,0,1-.395-1.278h0V-31.785a1.754,1.754,0,0,1,.395-1.278,1.754,1.754,0,0,1,1.278-.395h4.833a3.7,3.7,0,0,1,1.51.279,3.629,3.629,0,0,1,1.231.976h0l9.015,10.316v-9.9a1.754,1.754,0,0,1,.395-1.278,1.754,1.754,0,0,1,1.278-.395h6.971a1.754,1.754,0,0,1,1.278.395,1.754,1.754,0,0,1,.395,1.278h0V-1.673a1.754,1.754,0,0,1-.395,1.278A1.754,1.754,0,0,1,48.491,0H41.521a1.754,1.754,0,0,1-1.278-.395,1.754,1.754,0,0,1-.395-1.278h0V-7.389L31.9-17.008V-1.673a1.754,1.754,0,0,1-.395,1.278A1.754,1.754,0,0,1,30.229,0ZM74.05,4.182H66.894a1.754,1.754,0,0,1-1.278-.395,1.754,1.754,0,0,1-.395-1.278h0V-.046q-5.391-.79-7.273-3.23A9.411,9.411,0,0,1,56.066-9.2h0V-24.629a11.391,11.391,0,0,1,.627-3.88,6.628,6.628,0,0,1,2.231-3,11.706,11.706,0,0,1,4.438-1.952,30.659,30.659,0,0,1,7.156-.7h0a30.354,30.354,0,0,1,7.133.7,11.7,11.7,0,0,1,4.415,1.952,6.628,6.628,0,0,1,2.231,3,11.391,11.391,0,0,1,.627,3.88h0V-9.2a12.24,12.24,0,0,1-.418,3.276,6.7,6.7,0,0,1-1.441,2.672,8.442,8.442,0,0,1-2.811,2A15.8,15.8,0,0,1,75.723-.046h0V2.509a1.754,1.754,0,0,1-.395,1.278A1.754,1.754,0,0,1,74.05,4.182ZM66.615-22.91v12.686a2.01,2.01,0,0,0,.7,1.557q.7.627,3.206.627h0q2.509,0,3.206-.627a2.01,2.01,0,0,0,.7-1.557h0V-22.91a1.961,1.961,0,0,0-.7-1.51q-.7-.627-3.206-.627h0q-2.509,0-3.206.627a1.961,1.961,0,0,0-.7,1.51ZM110.622,0H98.54a2.967,2.967,0,0,1-1.464-.325,2.164,2.164,0,0,1-.906-1.208h0L91.616-12.919q-.418-1.022-.7-1.789t-.465-1.464a8.745,8.745,0,0,1-.256-1.464q-.07-.767-.07-1.882h0V-31.785a1.754,1.754,0,0,1,.4-1.278,1.754,1.754,0,0,1,1.278-.395H99.19a2.027,2.027,0,0,1,1.348.395A1.591,1.591,0,0,1,101-31.785h0V-18.96a4.728,4.728,0,0,0,.093.929,6.726,6.726,0,0,0,.279.976h0l2.184,6.506a1.366,1.366,0,0,0,.325.627.826.826,0,0,0,.558.163h.511a.826.826,0,0,0,.558-.163,1.367,1.367,0,0,0,.325-.627h0L108.02-17.1a6.725,6.725,0,0,0,.279-.976,4.728,4.728,0,0,0,.093-.929h0V-31.785a1.754,1.754,0,0,1,.395-1.278,1.754,1.754,0,0,1,1.278-.395h7.3a1.754,1.754,0,0,1,1.278.395,1.754,1.754,0,0,1,.395,1.278h0v12.268q0,1.115-.07,1.882a8.744,8.744,0,0,1-.256,1.464q-.186.7-.465,1.464t-.7,1.789h0L112.992-1.534a2.164,2.164,0,0,1-.906,1.208A2.967,2.967,0,0,1,110.622,0Zm34.852,0h-19.8A1.753,1.753,0,0,1,124.4-.395a1.754,1.754,0,0,1-.395-1.278h0V-7.2a1.754,1.754,0,0,1,.395-1.278,1.753,1.753,0,0,1,1.278-.395h4.6V-24.49h-4.6a1.753,1.753,0,0,1-1.278-.395,1.754,1.754,0,0,1-.395-1.278h0v-5.623a1.754,1.754,0,0,1,.395-1.278,1.754,1.754,0,0,1,1.278-.395h19.8a1.753,1.753,0,0,1,1.278.395,1.754,1.754,0,0,1,.4,1.278h0v5.623a1.754,1.754,0,0,1-.4,1.278,1.753,1.753,0,0,1-1.278.395h-4.508V-8.876h4.508a1.753,1.753,0,0,1,1.278.395,1.754,1.754,0,0,1,.4,1.278h0v5.53a1.754,1.754,0,0,1-.4,1.278A1.753,1.753,0,0,1,145.474,0Zm22.91,0H153.7a1.754,1.754,0,0,1-1.278-.395,1.754,1.754,0,0,1-.395-1.278h0V-7.11a1.753,1.753,0,0,1,.395-1.278,1.754,1.754,0,0,1,1.278-.395h12.5a1.069,1.069,0,0,0,.906-.395,1.522,1.522,0,0,0,.3-.953h0a1.83,1.83,0,0,0-.3-1.162,1.228,1.228,0,0,0-.906-.418h0l-6.97-.976A10.117,10.117,0,0,1,154-14.824q-1.975-1.673-1.975-5.576h0V-25.28a7.424,7.424,0,0,1,2.556-6.064,10.765,10.765,0,0,1,7.063-2.114h13.012a1.754,1.754,0,0,1,1.278.395,1.754,1.754,0,0,1,.4,1.278h0v5.53a1.754,1.754,0,0,1-.4,1.278,1.754,1.754,0,0,1-1.278.395H163.83a1.136,1.136,0,0,0-.929.395,1.52,1.52,0,0,0-.325,1h0a1.615,1.615,0,0,0,.325,1.022,1.236,1.236,0,0,0,.929.465h0l6.924.929a10.256,10.256,0,0,1,5.251,2.138q2,1.673,2,5.576h0v4.879a7.393,7.393,0,0,1-2.579,6.064A10.783,10.783,0,0,1,168.384,0ZM198.4,0h-7.528A1.754,1.754,0,0,1,189.6-.395a1.754,1.754,0,0,1-.4-1.278h0V-24.49h-6.831a1.754,1.754,0,0,1-1.278-.395,1.754,1.754,0,0,1-.395-1.278h0v-5.623a1.754,1.754,0,0,1,.395-1.278,1.754,1.754,0,0,1,1.278-.395h24.536a1.754,1.754,0,0,1,1.278.395,1.754,1.754,0,0,1,.395,1.278h0v5.623a1.754,1.754,0,0,1-.395,1.278,1.754,1.754,0,0,1-1.278.395h-6.831V-1.673a1.754,1.754,0,0,1-.395,1.278A1.754,1.754,0,0,1,198.4,0Z"
            transform="translate(255.419 331.88)"></path>
        <g id="Group_1" data-name="Group 1" transform="translate(140.633 160.404)">
            <path id="svg_computer"
                d="M72.082,22.763H18.969a3.584,3.584,0,0,0-3.794,3.794V64.494a3.584,3.584,0,0,0,3.794,3.794H72.082a3.584,3.584,0,0,0,3.794-3.794V26.557A3.584,3.584,0,0,0,72.082,22.763ZM68.288,60.7H22.763V30.35H68.288Z"
                transform="translate(69.562 20.68)"></path>
            <path id="svg_line"
                d="M27.256,20.789H2.649A2.93,2.93,0,0,1,0,17.657a2.93,2.93,0,0,1,2.649-3.133H27.256a2.93,2.93,0,0,1,2.649,3.133,2.93,2.93,0,0,1-2.649,3.133"
                transform="translate(100.159 79.005)"></path>
            <path id="svg_checkmark"
                d="M346.3-81.588a3.107,3.107,0,0,1,2.245,5.344L334.013-61.708a2.344,2.344,0,0,1-3.278,0l-7.375-7.411c-3.064-2.922,1.461-7.446,4.382-4.382l4.1,4.1a.82.82,0,0,0,1.1,0l11.223-11.223a3.061,3.061,0,0,1,2.138-.962Z"
                transform="translate(-220.787 138.108)"></path>
        </g>
    </g>
</svg>