<svg width="163" height="147" viewBox="0 0 163 147" fill="none" xmlns="http://www.w3.org/2000/svg">
<path d="M138.186 79.87L124.13 90.4039C124 90.5008 123.836 90.5424 123.676 90.5195C123.515 90.4966 123.37 90.4111 123.273 90.2816L123.012 89.9332L49.789 144.808C47.7627 146.326 45.2169 146.978 42.7115 146.621C40.2062 146.264 37.9465 144.926 36.4296 142.902L2.17915 97.1994C1.42827 96.1972 0.882338 95.0568 0.572565 93.8433C0.262792 92.6298 0.195241 91.3669 0.373746 90.1267C0.55225 88.8865 0.973324 87.6934 1.61293 86.6155C2.25253 85.5375 3.09814 84.5958 4.10145 83.8442L74.756 30.8941L74.5669 30.6418C74.4982 30.5504 74.4686 30.4355 74.4845 30.3221C74.5004 30.2088 74.5607 30.1064 74.652 30.0373L82.6515 24.0422C82.6971 24.0081 82.7488 23.9833 82.804 23.9691C82.8591 23.955 82.9164 23.9519 82.9727 23.9599C83.029 23.9679 83.0832 23.987 83.1321 24.016C83.181 24.0449 83.2237 24.0832 83.2578 24.1287L83.4468 24.381L86.46 22.1228L86.2694 21.8684C86.1977 21.7721 86.1673 21.6512 86.1848 21.5324C86.2022 21.4135 86.2661 21.3064 86.3624 21.2345L94.2529 15.3212C94.3489 15.2496 94.4694 15.2189 94.5879 15.2358C94.7064 15.2527 94.8133 15.3159 94.8853 15.4114L95.076 15.6658L99.1892 12.5833L98.9953 12.3246C98.9637 12.2825 98.9407 12.2346 98.9276 12.1836C98.9146 12.1326 98.9117 12.0795 98.9192 12.0274C98.9267 11.9753 98.9444 11.9251 98.9713 11.8798C98.9982 11.8345 99.0338 11.7949 99.076 11.7634L103.382 8.53649C103.467 8.4723 103.574 8.44452 103.68 8.45924C103.786 8.47395 103.881 8.52996 103.945 8.61498L104.139 8.87366L112.858 2.3397C114.884 0.821683 117.429 0.169641 119.933 0.526992C122.438 0.884342 124.697 2.22182 126.214 4.24522L160.464 49.9476C161.981 51.9713 162.63 54.5151 162.271 57.0197C161.911 59.5243 160.571 61.7845 158.545 63.3034L138.048 78.6647L138.309 79.0132C138.406 79.1431 138.447 79.3062 138.424 79.4668C138.401 79.6273 138.315 79.7723 138.186 79.87V79.87Z" fill="#AEAEAE"/>
<path d="M154.962 61.0493L47.0268 141.938C45.7405 142.901 44.1237 143.313 42.5319 143.083C40.9401 142.854 39.5035 142.001 38.5381 140.713L5.64001 96.8149C5.16066 96.1775 4.81157 95.452 4.61274 94.68C4.41392 93.9079 4.36926 93.1044 4.48135 92.3156C4.59344 91.5267 4.86007 90.768 5.26595 90.083C5.67183 89.398 6.20898 88.8 6.84662 88.3235L114.782 7.43441C115.419 6.95709 116.143 6.61011 116.915 6.41329C117.686 6.21647 118.489 6.17366 119.278 6.28731C120.066 6.40096 120.825 6.66885 121.51 7.07568C122.196 7.4825 122.794 8.02029 123.273 8.65834L128.196 15.2285L127.355 15.8592C126.296 16.6529 125.596 17.8356 125.409 19.147C125.223 20.4585 125.565 21.7913 126.36 22.8523L143.091 45.1777C143.886 46.2387 145.069 46.941 146.38 47.1299C147.692 47.3189 149.023 46.9792 150.082 46.1855L150.924 45.5549L156.171 52.5562C156.649 53.1942 156.997 53.9199 157.195 54.6921C157.394 55.4642 157.438 56.2676 157.326 57.0564C157.213 57.8451 156.947 58.6037 156.541 59.2888C156.136 59.9739 155.599 60.5721 154.962 61.0493V61.0493Z" fill="white"/>
<path d="M84.9938 105.987L52.0101 61.9749L46.4085 66.1728L79.3923 110.185L84.9938 105.987Z" fill="#E6E6E6"/>
<path d="M74.5909 113.783L41.6071 69.771L36.0056 73.969L68.9893 117.981L74.5909 113.783Z" fill="#E6E6E6"/>
<path d="M64.9882 120.98L32.0045 76.9675L25.6027 81.7651L58.5864 125.777L64.9882 120.98Z" fill="#E6E6E6"/>
<path d="M133.41 62.2049C135.066 64.4147 138.2 64.8636 140.41 63.2075C142.619 61.5515 143.068 58.4176 141.412 56.2079C139.756 53.9981 136.622 53.5493 134.413 55.2053C132.203 56.8613 131.754 59.9952 133.41 62.2049Z" fill="#CF3030"/>
<path d="M126.605 74.8024L93.0218 29.99L63.4136 52.1791L96.997 96.9915L126.605 74.8024Z" fill="#E6E6E6"/>
<path d="M90.0336 60.3688C86.4213 65.2184 87.0688 72.0711 87.0688 72.0711C87.0688 72.0711 93.5731 71.0612 97.1855 66.2117C100.798 61.3621 100.15 54.5094 100.15 54.5094C100.15 54.5094 93.646 55.5193 90.0336 60.3688Z" fill="#AEAEAE"/>
<path d="M92.443 61.7177C91.778 67.7374 87.0063 71.9878 87.0063 71.9878C87.0063 71.9878 83.3127 66.4784 83.9777 60.4588C84.6426 54.4391 89.4144 50.1887 89.4144 50.1887C89.4144 50.1887 93.108 55.6981 92.443 61.7177Z" fill="#CF3030"/>
<path d="M99.008 72.3438C93.3394 74.4496 86.944 71.9045 86.944 71.9045C86.944 71.9045 89.7391 65.9452 95.4077 63.8393C101.076 61.7335 107.472 64.2787 107.472 64.2787C107.472 64.2787 104.677 70.238 99.008 72.3438Z" fill="#AEAEAE"/>
<path d="M98.3897 69.6526C92.4254 68.6011 87.0064 71.9878 87.0064 71.9878C87.0064 71.9878 91.2574 77.0794 97.2217 78.131C103.186 79.1825 108.605 75.7958 108.605 75.7958C108.605 75.7958 104.354 70.7042 98.3897 69.6526Z" fill="#CF3030"/>
</svg>
